# xmcd CD database file
#
# Track frame offsets:
#	175
#	39825
#	86410
#	130377
#	188017
#	225537
#	260282
#	297217
#
# Disc length: 4568 seconds
#
# Revision: 0
# Processed by: cddbd v1.5.2PL0 Copyright (c) Steve Scherf et al.
# Submitted via: CDex 1.50
#
DISCID=6011d608
DTITLE=Bobby Jaspar - The Bobby Jaspar Quartet
DYEAR=1962
DGENRE=Jazz
TTITLE0=Sonnymoon For Two
TTITLE1=Like Someone In Love
TTITLE2=Stella By Starlight
TTITLE3=Be Like Bud
TTITLE4=Our Delight
TTITLE5=Darn That Dream
TTITLE6=Pent-up House
TTITLE7=Oleo
EXTD=YEAR: 1962
EXTT0=
EXTT1=
EXTT2=
EXTT3=
EXTT4=
EXTT5=
EXTT6=
EXTT7=
PLAYORDER=
